<svg width="24" height="24" viewBox="0 0 24 24" fill="none" xmlns="http://www.w3.org/2000/svg">
<g id="Icons / Cross">
<path id="Union" fill-rule="evenodd" clip-rule="evenodd" d="M5.70711 4.29289C5.31658 3.90237 4.68342 3.90237 4.29289 4.29289C3.90237 4.68342 3.90237 5.31658 4.29289 5.70711L10.5853 11.9995L4.29297 18.2919C3.90245 18.6824 3.90245 19.3156 4.29297 19.7061C4.6835 20.0966 5.31666 20.0966 5.70719 19.7061L11.9995 13.4137L18.2918 19.7061C18.6824 20.0966 19.3155 20.0966 19.706 19.7061C20.0966 19.3156 20.0966 18.6824 19.7061 18.2919L13.4137 11.9995L19.7061 5.70711C20.0967 5.31658 20.0967 4.68342 19.7061 4.29289C19.3156 3.90237 18.6824 3.90237 18.2919 4.29289L11.9995 10.5853L5.70711 4.29289Z" fill="white"/>
</g>
</svg>
