<svg width="24" height="24" viewBox="0 0 24 24" fill="none" xmlns="http://www.w3.org/2000/svg">
<mask id="path-1-inside-1_725_149" fill="white">
<path fill-rule="evenodd" clip-rule="evenodd" d="M6 4C4.34315 4 3 5.34315 3 7V15C3 16.6569 4.34315 18 6 18H15.7566C18.081 18.8503 19.8905 20.5194 20.633 21.2044C20.8716 21.4244 21 21.5429 21 21.5V15V12V7C21 5.34315 19.6569 4 18 4H6Z"/>
</mask>
<path d="M15.7566 18L16.4437 16.1217C16.2236 16.0412 15.991 16 15.7566 16V18ZM20.633 21.2044L19.277 22.6744L19.277 22.6744L20.633 21.2044ZM5 7C5 6.44772 5.44772 6 6 6V2C3.23858 2 1 4.23858 1 7H5ZM5 15V7H1V15H5ZM6 16C5.44772 16 5 15.5523 5 15H1C1 17.7614 3.23858 20 6 20V16ZM15.7566 16H6V20H15.7566V16ZM21.9891 19.7343C21.25 19.0525 19.1821 17.1234 16.4437 16.1217L15.0696 19.8783C16.98 20.5771 18.531 21.9863 19.277 22.6744L21.9891 19.7343ZM19 21.5C19 21.2947 19.0316 20.8312 19.3569 20.3637C19.7388 19.815 20.3022 19.5726 20.7758 19.5206C21.1733 19.4769 21.4801 19.5647 21.6072 19.6062C21.7568 19.6551 21.8681 19.7115 21.9263 19.7429C22.042 19.8054 22.1208 19.864 22.1403 19.8785C22.1697 19.9003 22.1875 19.9153 22.1886 19.9163C22.1901 19.9175 22.1762 19.9058 22.1353 19.8686C22.0968 19.8337 22.0505 19.791 21.9891 19.7343L19.277 22.6744C19.3771 22.7669 19.5141 22.894 19.6233 22.9853C19.6476 23.0056 19.8113 23.1468 20.0261 23.2628C20.0922 23.2984 20.2104 23.358 20.366 23.4088C20.499 23.4522 20.8108 23.5408 21.2123 23.4967C21.6898 23.4443 22.2562 23.2002 22.6401 22.6486C22.9674 22.1783 23 21.7107 23 21.5H19ZM19 15V21.5H23V15H19ZM19 12V15H23V12H19ZM19 7V12H23V7H19ZM18 6C18.5523 6 19 6.44772 19 7H23C23 4.23858 20.7614 2 18 2V6ZM6 6H18V2H6V6Z" fill="#FF533D" mask="url(#path-1-inside-1_725_149)"/>
<circle cx="8" cy="11" r="1" fill="#FF533D"/>
<circle cx="12" cy="11" r="1" fill="#FF533D"/>
<circle cx="16" cy="11" r="1" fill="#FF533D"/>
</svg>
