<svg width="16" height="16" viewBox="0 0 16 16" fill="none" xmlns="http://www.w3.org/2000/svg">
<path fill-rule="evenodd" clip-rule="evenodd" d="M13.7929 0.292893C14.1834 -0.0976311 14.8166 -0.0976311 15.2071 0.292893C15.5976 0.683417 15.5976 1.31658 15.2071 1.70711L9.16421 7.75L15.2071 13.7929C15.5976 14.1834 15.5976 14.8166 15.2071 15.2071C14.8166 15.5976 14.1834 15.5976 13.7929 15.2071L7.75 9.16421L1.70711 15.2071C1.31658 15.5976 0.683418 15.5976 0.292894 15.2071C-0.0976312 14.8166 -0.0976312 14.1834 0.292894 13.7929L6.33579 7.75L0.292893 1.70711C-0.0976309 1.31658 -0.0976309 0.683417 0.292893 0.292893C0.683418 -0.0976311 1.31658 -0.0976311 1.70711 0.292893L7.75 6.33579L13.7929 0.292893Z" fill="white"/>
</svg>
