<svg width="16" height="16" viewBox="0 0 16 16" fill="none" xmlns="http://www.w3.org/2000/svg">
<path fill-rule="evenodd" clip-rule="evenodd" d="M1.70711 0.292894C1.31658 -0.0976306 0.683419 -0.0976316 0.292894 0.292892C-0.0976306 0.683416 -0.0976316 1.31658 0.292892 1.70711L6.5853 7.99953L0.292972 14.2919C-0.0975523 14.6824 -0.0975513 15.3156 0.292974 15.7061C0.683498 16.0966 1.31666 16.0966 1.70719 15.7061L7.99951 9.41375L14.2918 15.7061C14.6824 16.0966 15.3155 16.0966 15.706 15.7061C16.0966 15.3156 16.0966 14.6824 15.7061 14.2919L9.41372 7.99953L15.7061 1.70711C16.0967 1.31658 16.0967 0.683416 15.7061 0.292892C15.3156 -0.0976316 14.6824 -0.0976306 14.2919 0.292894L7.99951 6.58532L1.70711 0.292894Z" fill="#2E2E2E"/>
</svg>
